<?xml version="1.0" encoding="iso-8859-1"?>
<!-- Generator: Adobe Illustrator 16.0.0, SVG Export Plug-In . SVG Version: 6.00 Build 0)  -->
<!DOCTYPE svg PUBLIC "-//W3C//DTD SVG 1.1//EN" "http://www.w3.org/Graphics/SVG/1.1/DTD/svg11.dtd">
<svg version="1.1" id="Capa_1" xmlns="http://www.w3.org/2000/svg" xmlns:xlink="http://www.w3.org/1999/xlink" x="0px" y="0px"
	 width="484.032px" height="484.032px" viewBox="0 0 484.032 484.032" style="enable-background:new 0 0 484.032 484.032;"
	 xml:space="preserve">
<g>
	<path d="M200.811,400.709v-45.331h59.7l-10.999-14.32h-48.701v-47.004h107.376v26.268l13.479,5.328V177.303
		c0-1.872,0.352-3.653,0.831-5.368v-9.823h6.402c3.437-2.867,7.811-4.662,12.63-4.662h58.486c4.818,0,9.192,1.795,12.629,4.662
		h20.009v53.686h-12.78v14.317h12.78v49.629h-12.78v14.313h12.78v26.547l14.315-5.659V32.873c0-9.207-7.491-16.698-16.693-16.698
		H16.698C7.485,16.175,0,23.672,0,32.873v365.862c0,5.65,2.84,10.636,7.154,13.661v2.633h5.989c1.149,0.253,2.331,0.398,3.554,0.398
		h289.986l-11.322-14.719H200.811z M322.503,30.484h107.76c1.315,0,2.391,1.072,2.391,2.389v48.12h-110.15V30.484z M322.503,95.306
		h110.15v52.493h-110.15V95.306z M200.811,30.484h107.376v50.509H200.811V30.484z M200.811,95.306h107.376v52.493H200.811V95.306z
		 M200.811,162.113h107.376v53.686H200.811V162.113z M200.811,230.116h107.376v49.629H200.811V230.116z M66.006,400.709H15.458
		c-0.673-0.416-1.149-1.133-1.149-1.987v-43.344h51.697V400.709z M66.006,341.058H14.309v-47.004h51.697V341.058z M66.006,279.745
		H14.309v-49.629h51.697V279.745z M66.006,215.799H14.309v-53.686h51.697V215.799z M66.006,147.799H14.309V95.306h51.697V147.799z
		 M186.494,400.709H80.319v-45.331h106.175V400.709z M186.494,341.058H80.319v-47.004h106.175V341.058z M186.494,279.745H80.319
		v-49.629h106.175V279.745z M186.494,215.799H80.319v-53.686h106.175V215.799z M186.494,147.799H80.319V95.306h106.175V147.799z
		 M186.494,80.988H80.319v-50.51h106.175V80.988z M482.817,322.224l-110.2,143.355c-1.116,1.434-2.831,2.278-4.646,2.278
		c-1.813,0-3.535-0.845-4.643-2.278l-110.2-143.355c-0.813-1.051-1.22-2.309-1.22-3.568c0-1.242,0.394-2.471,1.178-3.522
		c1.568-2.091,4.383-2.885,6.816-1.917l72.969,28.832V173.101c0-3.234,2.621-5.844,5.855-5.844h58.486
		c3.227,0,5.85,2.618,5.85,5.844v168.942l72.969-28.832c2.452-0.968,5.24-0.179,6.822,1.922
		C484.438,317.233,484.425,320.134,482.817,322.224z"/>
</g>
<g>
</g>
<g>
</g>
<g>
</g>
<g>
</g>
<g>
</g>
<g>
</g>
<g>
</g>
<g>
</g>
<g>
</g>
<g>
</g>
<g>
</g>
<g>
</g>
<g>
</g>
<g>
</g>
<g>
</g>
</svg>
